<?xml version="1.0" standalone="no"?>
<!DOCTYPE svg PUBLIC "-//W3C//DTD SVG 20010904//EN"
 "http://www.w3.org/TR/2001/REC-SVG-20010904/DTD/svg10.dtd">
<svg version="1.0" xmlns="http://www.w3.org/2000/svg"
 width="177.000000pt" height="182.000000pt" viewBox="0 0 177.000000 182.000000"
 preserveAspectRatio="xMidYMid meet">

<g transform="translate(0.000000,182.000000) scale(0.100000,-0.100000)"
fill="#6d6d6d" stroke="none">
<path d="M815 1668 c-37 -13 -90 -62 -105 -98 -14 -33 -127 -84 -180 -80 -116
8 -146 5 -183 -20 -68 -47 -99 -143 -68 -217 10 -25 7 -38 -23 -107 -26 -59
-43 -84 -63 -94 -68 -35 -103 -90 -103 -162 0 -72 36 -128 103 -163 21 -11 38
-36 63 -94 30 -67 33 -82 23 -106 -30 -73 1 -171 68 -217 37 -25 67 -28 183
-20 53 4 166 -47 180 -80 15 -35 67 -86 103 -99 36 -14 88 -14 124 0 36 13 88
64 103 99 14 33 127 84 180 80 116 -8 146 -5 183 20 68 47 95 130 68 212 -10
32 -10 42 7 75 11 21 25 55 32 76 7 23 21 42 34 47 37 14 88 62 102 97 38 91
1 189 -89 235 -20 10 -37 35 -62 93 -32 72 -34 83 -23 115 26 80 -2 164 -69
210 -37 25 -67 28 -183 20 -53 -4 -166 47 -180 80 -34 82 -139 128 -225 98z
m109 -130 c9 -12 16 -32 16 -44 0 -23 -42 -64 -65 -64 -23 0 -65 41 -65 64 0
38 28 66 65 66 24 0 39 -7 49 -22z m-119 -203 c70 -30 145 -14 200 43 l30 30
45 -17 c38 -14 45 -21 43 -41 -9 -115 77 -210 191 -210 43 0 45 -1 61 -45 l18
-45 -32 -29 c-37 -34 -61 -87 -61 -133 0 -41 35 -112 68 -138 l25 -21 -19 -47
c-19 -46 -20 -47 -60 -44 -52 4 -100 -16 -141 -57 -34 -36 -57 -106 -47 -146
5 -22 1 -27 -41 -45 l-48 -21 -31 32 c-77 79 -185 79 -262 0 l-31 -32 -44 19
c-43 19 -44 20 -45 69 -2 102 -74 177 -173 180 l-56 1 -19 46 -19 45 25 21
c33 26 68 97 68 138 0 46 -24 99 -61 133 l-32 29 17 44 17 44 58 4 c104 7 173
79 175 182 1 50 1 51 46 67 l45 17 27 -29 c15 -17 43 -36 63 -44z m-310 25
c40 -44 -13 -122 -68 -101 -37 14 -54 53 -39 86 20 44 74 52 107 15z m865 -13
c31 -56 -38 -117 -89 -79 -45 33 -37 93 14 112 28 10 57 -2 75 -33z m-1046
-413 c17 -16 21 -61 8 -80 -17 -26 -51 -35 -79 -22 -64 30 -48 118 22 118 18
0 41 -7 49 -16z m1222 -10 c34 -51 -25 -121 -78 -93 -30 16 -38 28 -38 61 0
36 24 58 65 58 26 0 39 -6 51 -26z m-1042 -423 c25 -27 17 -70 -17 -95 -26
-19 -30 -19 -55 -5 -62 34 -47 119 22 119 20 0 40 -8 50 -19z m862 -7 c22 -33
10 -72 -28 -93 -25 -14 -29 -14 -55 5 -55 41 -34 114 33 114 25 0 38 -7 50
-26z m-433 -172 c38 -33 5 -105 -48 -105 -53 0 -86 72 -47 105 33 29 60 29 95
0z"/>
</g>
</svg>
