<?xml version="1.0" standalone="no"?>
<!DOCTYPE svg PUBLIC "-//W3C//DTD SVG 20010904//EN"
 "http://www.w3.org/TR/2001/REC-SVG-20010904/DTD/svg10.dtd">
<svg version="1.0" xmlns="http://www.w3.org/2000/svg"
 width="1007.000000pt" height="394.000000pt" viewBox="0 0 1007.000000 394.000000"
 preserveAspectRatio="xMidYMid meet">

<g transform="translate(0.000000,394.000000) scale(0.100000,-0.100000)"
fill="#000000" stroke="none">
<path d="M0 1970 l0 -1970 5035 0 5035 0 0 1970 0 1970 -5035 0 -5035 0 0
-1970z m850 1058 c29 -15 51 -35 62 -57 13 -25 31 -40 75 -59 32 -13 69 -23
83 -22 126 14 176 -7 205 -85 14 -36 16 -52 7 -87 -10 -38 -8 -51 15 -108 20
-53 32 -70 61 -86 47 -25 74 -72 74 -130 0 -53 -20 -86 -73 -122 -22 -15 -43
-44 -62 -85 -26 -56 -27 -66 -17 -103 15 -54 5 -97 -32 -140 -38 -43 -92 -59
-148 -44 -58 16 -153 -20 -185 -70 -38 -59 -61 -73 -124 -78 -54 -4 -60 -2
-94 28 -20 18 -42 43 -49 57 -9 17 -34 33 -77 50 -56 22 -68 24 -102 14 -107
-32 -219 81 -180 183 9 26 7 40 -16 99 -19 49 -34 72 -54 82 -39 21 -77 70
-85 110 -9 49 29 124 76 149 28 15 41 32 63 86 23 58 26 71 16 99 -35 100 55
205 159 187 61 -11 75 -9 134 15 40 17 61 32 68 51 21 49 76 86 130 87 14 1
46 -9 70 -21z m1870 -361 c360 -167 795 -370 965 -449 l310 -145 3 484 2 483
105 0 105 0 0 -645 c0 -355 -2 -645 -4 -645 -2 0 -53 23 -112 51 -60 28 -224
105 -364 171 -140 66 -320 151 -400 188 -80 38 -298 140 -485 228 -588 275
-711 332 -723 332 -9 0 -12 -119 -12 -480 l0 -480 -105 0 -105 0 0 645 0 644
83 -38 c45 -21 377 -176 737 -344z m4030 273 l0 -100 -1155 0 -1155 0 0 100 0
100 1155 0 1155 0 0 -100z m473 33 c35 -38 151 -165 258 -283 209 -231 254
-281 613 -675 l236 -260 -137 -3 -138 -3 -30 34 c-16 19 -142 157 -280 307
-220 241 -802 885 -843 933 -14 16 -8 17 122 17 l136 0 63 -67z m884 -256
c439 -484 595 -652 605 -652 5 0 48 43 96 96 48 52 206 225 352 385 l264 289
-571 3 -571 2 -92 100 -92 100 898 0 898 0 -40 -42 c-23 -24 -281 -306 -574
-628 -293 -322 -541 -593 -550 -603 -17 -18 -33 -2 -401 400 -633 689 -789
861 -789 867 0 3 62 6 138 5 l137 0 292 -322z m-1467 -322 l0 -95 -1100 0
-1100 0 0 95 0 95 1100 0 1100 0 0 -95z m110 -545 l0 -100 -1155 0 -1155 0 0
100 0 100 1155 0 1155 0 0 -100z m-2091 -651 c17 -6 31 -17 31 -24 0 -10 -11
-7 -39 8 -37 21 -42 21 -83 7 -37 -13 -43 -19 -43 -44 0 -26 8 -34 68 -66 99
-54 117 -74 117 -130 0 -36 -5 -52 -23 -68 -25 -23 -76 -42 -114 -42 -33 0
-103 33 -103 48 0 8 10 5 30 -9 75 -56 220 4 153 63 -10 9 -46 30 -80 47 -68
34 -93 67 -93 123 1 76 88 118 179 87z m672 -74 l-3 -85 72 0 72 0 -3 85 -4
85 50 0 50 0 0 -180 0 -180 -50 0 -50 0 3 90 3 90 -71 0 -71 0 3 -90 3 -90
-53 0 c-49 0 -52 1 -42 19 5 11 10 83 10 161 0 78 -5 150 -10 161 -10 18 -7
19 42 19 l53 0 -4 -85z m1056 70 c50 -21 72 -42 94 -90 84 -183 -138 -347
-293 -217 -103 87 -67 274 61 312 43 13 99 11 138 -5z m863 6 c59 -12 82 -41
78 -99 -4 -63 -36 -85 -129 -90 l-71 -4 4 -79 3 -79 -45 0 -45 0 3 166 c2 116
-1 170 -9 180 -10 12 2 14 77 14 49 -1 109 -5 134 -9z"/>
<path d="M752 2944 c-26 -18 -30 -65 -7 -84 22 -18 66 -15 82 6 37 51 -23 115
-75 78z"/>
<path d="M622 2815 c-41 -14 -46 -20 -48 -64 -4 -85 -62 -141 -145 -141 -45 0
-46 -1 -59 -40 -13 -39 -12 -42 13 -68 63 -67 60 -159 -8 -217 -24 -20 -24
-21 -7 -59 16 -36 20 -38 64 -40 80 -3 137 -60 141 -141 2 -47 4 -50 40 -64
36 -13 39 -13 65 11 38 36 65 48 107 48 42 0 69 -12 107 -48 27 -25 28 -25 66
-8 33 15 38 21 34 46 -2 15 5 48 16 73 24 54 84 91 138 85 30 -3 34 0 50 34
17 38 17 39 -8 66 -36 38 -48 65 -48 106 0 46 12 75 45 108 27 27 27 29 13 65
-13 37 -16 38 -72 44 -44 5 -64 13 -86 34 -34 32 -54 85 -47 122 4 22 -1 28
-37 44 l-41 18 -20 -24 c-51 -63 -149 -68 -209 -11 -31 28 -37 31 -64 21z"/>
<path d="M390 2790 c-24 -24 -25 -38 -4 -68 17 -24 62 -30 82 -10 18 18 14 63
-6 81 -25 22 -48 21 -72 -3z"/>
<path d="M1112 2803 c-7 -3 -18 -16 -23 -30 -14 -36 12 -73 50 -73 49 0 70 46
40 84 -20 25 -39 30 -67 19z"/>
<path d="M242 2438 c-18 -18 -14 -63 8 -83 45 -41 110 18 76 70 -18 27 -63 34
-84 13z"/>
<path d="M1245 2430 c-23 -25 -13 -67 20 -82 52 -23 100 46 59 86 -21 22 -57
20 -79 -4z"/>
<path d="M390 2080 c-24 -24 -25 -38 -4 -68 17 -24 62 -30 82 -10 20 20 14 65
-10 82 -30 21 -44 20 -68 -4z"/>
<path d="M1118 2089 c-10 -5 -23 -19 -29 -30 -24 -45 52 -94 89 -57 20 20 14
65 -10 82 -26 19 -27 19 -50 5z"/>
<path d="M747 1932 c-33 -37 -11 -92 37 -92 48 0 73 62 38 93 -24 22 -55 21
-75 -1z"/>
<path d="M6277 1189 c-36 -21 -51 -70 -51 -164 0 -104 16 -147 62 -163 69 -24
112 39 112 161 0 86 -16 136 -51 161 -27 18 -46 20 -72 5z"/>
<path d="M7132 1108 l3 -83 35 3 c43 3 80 41 80 83 0 42 -39 79 -85 79 l-36 0
3 -82z"/>
</g>
</svg>
